<svg width="49" height="53" viewBox="0 0 49 53" fill="none" xmlns="http://www.w3.org/2000/svg">
<path d="M4.76131 31.166V51.2215C4.76131 51.7251 5.17001 52.1349 5.67463 52.1349H27.1992V33.9748H37.3103V52.1349H43.3251C43.8308 52.1349 44.2384 51.7251 44.2384 51.2215V31.166L24.5113 11.5234L4.76131 31.166ZM20.8132 42.4355H11.6894V33.9758H20.8132V42.4355Z" fill="#6F1AB1"/>
<path d="M48.2368 23.9543L24.5009 0.219482L13.3034 11.416V6.48866C13.3034 5.33762 12.3692 4.40345 11.2181 4.40345C10.0671 4.40345 9.13294 5.33762 9.13294 6.48866V15.5864L0.763967 23.9543C-0.254656 24.973 -0.254656 26.6234 0.763967 27.641C1.27276 28.1498 1.94002 28.4042 2.60729 28.4042C3.27456 28.4042 3.94078 28.1498 4.45061 27.642L24.502 7.59277L44.5512 27.641C45.5698 28.6596 47.2192 28.6596 48.2368 27.641C49.2544 26.6224 49.2544 24.9719 48.2368 23.9543Z" fill="#6F1AB1"/>
</svg>
